<?xml version="1.0" encoding="UTF-8" standalone="no"?>
<!-- Created with Inkscape (http://www.inkscape.org/) -->

<svg
   xmlns:dc="http://purl.org/dc/elements/1.1/"
   xmlns:cc="http://creativecommons.org/ns#"
   xmlns:rdf="http://www.w3.org/1999/02/22-rdf-syntax-ns#"
   xmlns:svg="http://www.w3.org/2000/svg"
   xmlns="http://www.w3.org/2000/svg"
   xmlns:sodipodi="http://sodipodi.sourceforge.net/DTD/sodipodi-0.dtd"
   xmlns:inkscape="http://www.inkscape.org/namespaces/inkscape"
   width="210mm"
   height="297mm"
   viewBox="0 0 744.09448819 1052.3622047"
   id="svg2"
   version="1.1"
   inkscape:version="0.91 r13725"
   sodipodi:docname="case.svg">
  <defs
     id="defs4" />
  <sodipodi:namedview
     id="base"
     pagecolor="#ffffff"
     bordercolor="#666666"
     borderopacity="1.0"
     inkscape:pageopacity="0.0"
     inkscape:pageshadow="2"
     inkscape:zoom="0.98994949"
     inkscape:cx="405.62877"
     inkscape:cy="729.07666"
     inkscape:document-units="px"
     inkscape:current-layer="layer1"
     showgrid="false"
     inkscape:window-width="1857"
     inkscape:window-height="1057"
     inkscape:window-x="1592"
     inkscape:window-y="-8"
     inkscape:window-maximized="1" />
  <metadata
     id="metadata7">
    <rdf:RDF>
      <cc:Work
         rdf:about="">
        <dc:format>image/svg+xml</dc:format>
        <dc:type
           rdf:resource="http://purl.org/dc/dcmitype/StillImage" />
        <dc:title></dc:title>
      </cc:Work>
    </rdf:RDF>
  </metadata>
  <g
     inkscape:label="Layer 1"
     inkscape:groupmode="layer"
     id="layer1">
    <rect
       style="opacity:1;fill:#dd7722;fill-opacity:1;fill-rule:evenodd;stroke:none;stroke-width:1;stroke-linecap:butt;stroke-linejoin:miter;stroke-miterlimit:1;stroke-dasharray:none;stroke-opacity:1"
       id="rect4136"
       width="415.71429"
       height="247.85706"
       x="120"
       y="219.50507"
       ry="16.89382" />
    <path
       style="opacity:1;fill:#be661d;fill-opacity:1;fill-rule:evenodd;stroke:none;stroke-width:1;stroke-linecap:butt;stroke-linejoin:miter;stroke-miterlimit:1;stroke-dasharray:none;stroke-opacity:1"
       d="m 326.42857,219.50562 0,247.8571 193.60938,0 c 8.68488,0 15.67578,-7.53577 15.67578,-16.89495 l 0,-214.06931 c 0,-9.35918 -6.9909,-16.89284 -15.67578,-16.89284 l -193.60938,0 z"
       id="rect4192"
       inkscape:connector-curvature="0" />
    <path
       style="opacity:1;fill:#f8d93a;fill-opacity:1;fill-rule:evenodd;stroke:none;stroke-width:1;stroke-linecap:butt;stroke-linejoin:miter;stroke-miterlimit:1;stroke-dasharray:none;stroke-opacity:1"
       d="M 136.89453 219.50586 C 127.53536 219.50586 120 227.03926 120 236.39844 L 120 259.49609 A 52.142857 52.142857 0 0 0 162.25781 219.50586 L 136.89453 219.50586 z "
       id="rect4197" />
    <path
       id="path4219"
       d="M 136.89453,468.06752 C 127.53536,468.06752 120,460.53412 120,451.17494 l 0,-23.09765 a 52.142857,52.142857 0 0 1 42.25781,39.99023 l -25.36328,0 z"
       style="opacity:1;fill:#f8d93a;fill-opacity:1;fill-rule:evenodd;stroke:none;stroke-width:1;stroke-linecap:butt;stroke-linejoin:miter;stroke-miterlimit:1;stroke-dasharray:none;stroke-opacity:1"
       inkscape:connector-curvature="0" />
    <path
       inkscape:connector-curvature="0"
       style="opacity:1;fill:#f8d93a;fill-opacity:1;fill-rule:evenodd;stroke:none;stroke-width:1;stroke-linecap:butt;stroke-linejoin:miter;stroke-miterlimit:1;stroke-dasharray:none;stroke-opacity:1"
       d="m 519.08264,467.58411 c 9.35917,0 16.89453,-7.5334 16.89453,-16.89258 l 0,-23.09765 a 52.142857,52.142857 0 0 0 -42.25781,39.99023 l 25.36328,0 z"
       id="path4221" />
    <path
       id="path4223"
       d="m 519.08264,219.02245 c 9.35917,0 16.89453,7.5334 16.89453,16.89258 l 0,23.09765 a 52.142857,52.142857 0 0 1 -42.25781,-39.99023 l 25.36328,0 z"
       style="opacity:1;fill:#f8d93a;fill-opacity:1;fill-rule:evenodd;stroke:none;stroke-width:1;stroke-linecap:butt;stroke-linejoin:miter;stroke-miterlimit:1;stroke-dasharray:none;stroke-opacity:1"
       inkscape:connector-curvature="0" />
    <rect
       style="opacity:1;fill:#a25719;fill-opacity:1;fill-rule:evenodd;stroke:none;stroke-width:1;stroke-linecap:butt;stroke-linejoin:miter;stroke-miterlimit:1;stroke-dasharray:none;stroke-opacity:1"
       id="rect4279"
       width="11.428572"
       height="237.14285"
       x="239.28572"
       y="223.79079"
       ry="0" />
    <path
       style="opacity:1;fill:#f8d93a;fill-opacity:1;fill-rule:evenodd;stroke:none;stroke-width:1;stroke-linecap:butt;stroke-linejoin:miter;stroke-miterlimit:1;stroke-dasharray:none;stroke-opacity:1"
       d="M 235.60742,219.46114 A 10.357142,10.714286 0 0 0 235,223.03341 a 10.357142,10.714286 0 0 0 10.35742,10.71484 10.357142,10.714286 0 0 0 10.35742,-10.71484 10.357142,10.714286 0 0 0 -0.60546,-3.57227 l -19.50196,0 z"
       id="path4225"
       inkscape:connector-curvature="0" />
    <rect
       style="opacity:1;fill:#a25719;fill-opacity:1;fill-rule:evenodd;stroke:none;stroke-width:1;stroke-linecap:butt;stroke-linejoin:miter;stroke-miterlimit:1;stroke-dasharray:none;stroke-opacity:1"
       id="rect4279-0"
       width="11.428572"
       height="237.14285"
       x="402.85715"
       y="221.64793"
       ry="0" />
    <path
       style="opacity:1;fill:#f8d93a;fill-opacity:1;fill-rule:evenodd;stroke:none;stroke-width:1;stroke-linecap:butt;stroke-linejoin:miter;stroke-miterlimit:1;stroke-dasharray:none;stroke-opacity:1"
       d="m 399.10924,219.1664 a 10.357142,10.714286 0 0 0 -0.60742,3.57227 10.357142,10.714286 0 0 0 10.35742,10.71484 10.357142,10.714286 0 0 0 10.35742,-10.71484 10.357142,10.714286 0 0 0 -0.60546,-3.57227 l -19.50196,0 z"
       id="path4225-8"
       inkscape:connector-curvature="0" />
    <path
       inkscape:connector-curvature="0"
       id="path4262"
       d="m 235.189,467.31968 a 10.357142,10.714286 0 0 1 -0.60742,-3.57227 10.357142,10.714286 0 0 1 10.35742,-10.71484 10.357142,10.714286 0 0 1 10.35742,10.71484 10.357142,10.714286 0 0 1 -0.60546,3.57227 l -19.50196,0 z"
       style="opacity:1;fill:#f8d93a;fill-opacity:1;fill-rule:evenodd;stroke:none;stroke-width:1;stroke-linecap:butt;stroke-linejoin:miter;stroke-miterlimit:1;stroke-dasharray:none;stroke-opacity:1" />
    <path
       inkscape:connector-curvature="0"
       id="path4262-5"
       d="m 398.93655,467.3629 a 10.357142,10.714286 0 0 1 -0.60742,-3.57227 10.357142,10.714286 0 0 1 10.35742,-10.71484 10.357142,10.714286 0 0 1 10.35742,10.71484 10.357142,10.714286 0 0 1 -0.60546,3.57227 l -19.50196,0 z"
       style="opacity:1;fill:#f8d93a;fill-opacity:1;fill-rule:evenodd;stroke:none;stroke-width:1;stroke-linecap:butt;stroke-linejoin:miter;stroke-miterlimit:1;stroke-dasharray:none;stroke-opacity:1" />
    <circle
       r="2.8571429"
       cy="290.0408"
       cx="244.64285"
       id="circle4300"
       style="opacity:1;fill:#f8d93a;fill-opacity:1;fill-rule:evenodd;stroke:none;stroke-width:1;stroke-linecap:butt;stroke-linejoin:miter;stroke-miterlimit:1;stroke-dasharray:none;stroke-opacity:1" />
    <circle
       r="2.8571429"
       cy="384.99515"
       cx="245.14793"
       id="circle4302"
       style="opacity:1;fill:#f8d93a;fill-opacity:1;fill-rule:evenodd;stroke:none;stroke-width:1;stroke-linecap:butt;stroke-linejoin:miter;stroke-miterlimit:1;stroke-dasharray:none;stroke-opacity:1" />
    <circle
       r="2.8571429"
       cy="384.49005"
       cx="408.79263"
       id="circle4304"
       style="opacity:1;fill:#f8d93a;fill-opacity:1;fill-rule:evenodd;stroke:none;stroke-width:1;stroke-linecap:butt;stroke-linejoin:miter;stroke-miterlimit:1;stroke-dasharray:none;stroke-opacity:1" />
    <circle
       style="opacity:1;fill:#f8d93a;fill-opacity:1;fill-rule:evenodd;stroke:none;stroke-width:1;stroke-linecap:butt;stroke-linejoin:miter;stroke-miterlimit:1;stroke-dasharray:none;stroke-opacity:1"
       id="path4296"
       cx="407.7825"
       cy="284.48495"
       r="2.8571429" />
    <rect
       style="opacity:1;fill:#f8d93a;fill-opacity:1;fill-rule:evenodd;stroke:none;stroke-width:1;stroke-linecap:butt;stroke-linejoin:miter;stroke-miterlimit:1;stroke-dasharray:none;stroke-opacity:1"
       id="rect4306"
       width="20.708122"
       height="4.0406055"
       x="278.80209"
       y="215.45081" />
    <rect
       style="opacity:1;fill:#f8d93a;fill-opacity:1;fill-rule:evenodd;stroke:none;stroke-width:1;stroke-linecap:butt;stroke-linejoin:miter;stroke-miterlimit:1;stroke-dasharray:none;stroke-opacity:1"
       id="rect4306-6"
       width="20.708122"
       height="4.0406055"
       x="352.79578"
       y="215.45082" />
    <path
       style="opacity:1;fill:#a25719;fill-opacity:1;fill-rule:evenodd;stroke:none;stroke-width:1;stroke-linecap:butt;stroke-linejoin:miter;stroke-miterlimit:1;stroke-dasharray:none;stroke-opacity:1"
       d="m 289.47018,192.97474 c -3.81122,0 -6.8801,3.34428 -6.8801,7.49753 l 0,14.72574 7.547,0 0,-7.48806 c 0,-3.70424 2.73701,-6.68552 6.1362,-6.68552 l 58.22129,0 c 3.3992,0 6.13621,2.98128 6.13621,6.68552 l 0,7.48806 7.06514,0 0,-14.72574 c 0,-4.15325 -3.06888,-7.49753 -6.8801,-7.49753 l -71.34564,0 z"
       id="rect4331"
       inkscape:connector-curvature="0" />
  </g>
</svg>
